<?xml version="1.0" encoding="iso-8859-1"?>
<!-- Generator: Adobe Illustrator 19.0.0, SVG Export Plug-In . SVG Version: 6.00 Build 0)  -->
<svg version="1.1" id="Capa_1" xmlns="http://www.w3.org/2000/svg" xmlns:xlink="http://www.w3.org/1999/xlink" x="0px" y="0px"
	 viewBox="0 0 512 512" style="enable-background:new 0 0 512 512;" xml:space="preserve">
<g>
	<path style="fill:#FFA800;" d="M379.734,324.267c-19.123,0-34.699,22.954-34.699,51.2H75.155
		c-8.948-0.503-15.826-8.113-15.422-17.067v-34.133H379.734z"/>
	<path style="fill:#FFFFFF;" d="M345.6,324.267c-19.123,0-34.699,22.954-34.699,51.2H41.022
		c-8.948-0.503-15.826-8.113-15.422-17.067v-34.133H345.6z"/>
	<path style="fill:#FEDD0A;" d="M354.134,324.267c-19.514,0-35.408,22.954-35.408,51.2H66.937
		c-9.04-0.408-16.062-8.024-15.737-17.067v-34.133H354.134z"/>
	<circle style="fill:#FFA800;" cx="119.467" cy="375.467" r="51.2"/>
	<ellipse style="fill:#FEDD0A;" cx="106.667" cy="375.467" rx="38.4" ry="51.2"/>
	<g>
		<circle style="fill:#FFA800;" cx="119.467" cy="375.467" r="17.067"/>
		<circle style="fill:#FFA800;" cx="392.534" cy="375.467" r="51.2"/>
	</g>
	<path style="fill:#FEDD0A;" d="M418.134,375.467c0,28.246-17.237,51.2-38.4,51.2s-38.4-22.954-38.4-51.2s17.237-51.2,38.4-51.2
		c3.682-0.014,7.333,0.681,10.752,2.048C406.443,332.544,418.134,352.171,418.134,375.467z"/>
	<g>
		<circle style="fill:#FFA800;" cx="392.534" cy="375.467" r="17.067"/>
		<path style="fill:#FFA800;" d="M503.467,273.067V358.4c-0.028,9.414-7.652,17.039-17.067,17.067h-25.6
			c9.414-0.028,17.039-7.652,17.067-17.067v-85.333H503.467z"/>
	</g>
	<path style="fill:#FEDD0A;" d="M477.867,273.067V358.4c-0.028,9.414-7.652,17.039-17.067,17.067h-17.067
		c-0.022-28.268-22.932-51.178-51.2-51.2h-51.2V162.134h51.2V256c0.028,9.414,7.653,17.039,17.067,17.067H477.867z"/>
	<path style="fill:#34A9F7;" d="M503.467,245.419v27.648H409.6c-9.414-0.028-17.039-7.653-17.067-17.067v-93.867h34.987
		c4.888-0.013,9.548,2.068,12.8,5.717l58.795,66.219C501.915,237.187,503.465,241.229,503.467,245.419L503.467,245.419z"/>
	<path style="fill:#55C9FC;" d="M477.867,245.419v27.648H409.6c-9.414-0.028-17.039-7.653-17.067-17.067v-93.867h9.387
		c4.888-0.013,9.548,2.068,12.8,5.717l58.795,66.219C476.315,237.187,477.865,241.229,477.867,245.419L477.867,245.419z"/>
	<path style="fill:#FFA800;" d="M59.734,85.334h264.533c9.426,0,17.067,7.641,17.067,17.067v221.867H42.667V102.4
		C42.667,92.975,50.308,85.334,59.734,85.334z"/>
	<path style="fill:#FFFFFF;" d="M25.6,85.334h264.533c9.426,0,17.067,7.641,17.067,17.067v221.867H8.534V102.4
		C8.534,92.975,16.175,85.334,25.6,85.334z"/>
	<path style="fill:#FEDD0A;" d="M51.2,85.334h247.467c9.426,0,17.067,7.641,17.067,17.067v221.867h-281.6V102.4
		C34.134,92.975,41.775,85.334,51.2,85.334z"/>
	<g>
		<path d="M119.467,435.2c-32.99,0-59.733-26.744-59.733-59.733s26.744-59.733,59.733-59.733s59.733,26.744,59.733,59.733
			C179.162,408.441,152.441,435.162,119.467,435.2L119.467,435.2z M119.467,332.8c-23.564,0-42.667,19.103-42.667,42.667
			s19.103,42.667,42.667,42.667s42.667-19.103,42.667-42.667C162.106,351.914,143.02,332.828,119.467,332.8z"/>
		<path d="M119.467,401.067c-14.138,0-25.6-11.462-25.6-25.6s11.462-25.6,25.6-25.6s25.6,11.462,25.6,25.6
			C145.052,389.599,133.599,401.051,119.467,401.067z M119.467,366.934c-4.713,0-8.533,3.82-8.533,8.533s3.821,8.533,8.533,8.533
			c4.713,0,8.533-3.82,8.533-8.533C127.996,370.756,124.178,366.938,119.467,366.934L119.467,366.934z"/>
		<path d="M392.534,435.2c-32.99,0-59.733-26.744-59.733-59.733s26.744-59.733,59.733-59.733s59.733,26.744,59.733,59.733
			C452.229,408.441,425.508,435.162,392.534,435.2L392.534,435.2z M392.534,332.8c-23.564,0-42.667,19.103-42.667,42.667
			s19.103,42.667,42.667,42.667c23.564,0,42.667-19.103,42.667-42.667C435.173,351.914,416.086,332.828,392.534,332.8L392.534,332.8
			z"/>
		<path d="M392.534,401.067c-14.138,0-25.6-11.462-25.6-25.6s11.462-25.6,25.6-25.6c14.138,0,25.6,11.462,25.6,25.6
			C418.118,389.599,406.666,401.051,392.534,401.067L392.534,401.067z M392.534,366.934c-4.713,0-8.533,3.82-8.533,8.533
			s3.82,8.533,8.533,8.533s8.533-3.82,8.533-8.533C401.062,370.756,397.245,366.938,392.534,366.934z"/>
		<path d="M68.267,384h-25.6c-14.132-0.015-25.585-11.468-25.6-25.6v-34.133c-0.001-2.263,0.898-4.434,2.499-6.035
			c1.6-1.6,3.771-2.499,6.035-2.499h366.933c4.713,0,8.533,3.82,8.533,8.533s-3.821,8.533-8.533,8.533h-358.4v25.6
			c0.005,4.711,3.822,8.529,8.533,8.533h25.6c4.713,0,8.533,3.82,8.533,8.533S72.98,384,68.267,384L68.267,384z"/>
		<path d="M486.4,384h-42.667c-4.713,0-8.533-3.82-8.533-8.533s3.82-8.533,8.533-8.533H486.4c4.711-0.005,8.529-3.822,8.533-8.533
			v-34.133c0-4.713,3.82-8.533,8.533-8.533s8.533,3.82,8.533,8.533V358.4C511.985,372.532,500.532,383.985,486.4,384L486.4,384z"/>
		<path d="M341.334,384H170.667c-4.713,0-8.533-3.82-8.533-8.533s3.821-8.533,8.533-8.533h170.667c4.713,0,8.533,3.82,8.533,8.533
			S346.047,384,341.334,384z"/>
		<path d="M503.467,332.8c-2.263,0.001-4.434-0.898-6.035-2.499c-1.6-1.6-2.499-3.771-2.499-6.035v-78.85
			c-0.009-2.096-0.787-4.115-2.188-5.675l-58.804-66.225c-1.633-1.826-3.971-2.864-6.421-2.85h-77.654v145.067h42.667
			c4.713,0,8.533,3.82,8.533,8.533s-3.821,8.533-8.533,8.533h-51.2c-2.263,0.001-4.434-0.898-6.035-2.499s-2.499-3.771-2.499-6.035
			V162.134c-0.001-2.263,0.898-4.434,2.499-6.035c1.6-1.6,3.771-2.499,6.035-2.499h86.188c7.334-0.015,14.322,3.116,19.191,8.6
			l58.783,66.2c4.183,4.682,6.498,10.738,6.504,17.017v78.85c0.001,2.263-0.898,4.434-2.499,6.035
			C507.901,331.902,505.73,332.801,503.467,332.8L503.467,332.8z"/>
		<path d="M341.334,332.8H8.534c-2.263,0.001-4.434-0.898-6.035-2.499S0,326.53,0,324.267v-128c0-4.713,3.821-8.533,8.533-8.533
			s8.533,3.821,8.533,8.533v119.467H332.8V102.4c-0.005-4.711-3.822-8.529-8.533-8.533H25.6c-4.711,0.005-8.529,3.822-8.533,8.533
			V128c0,4.713-3.821,8.533-8.533,8.533S0,132.713,0,128v-25.6c0.015-14.132,11.468-25.585,25.6-25.6h298.667
			c14.132,0.015,25.585,11.468,25.6,25.6v221.867c0.001,2.263-0.898,4.434-2.499,6.035
			C345.768,331.902,343.597,332.801,341.334,332.8L341.334,332.8z"/>
		<path d="M8.534,170.667c-2.267,0.005-4.444-0.884-6.059-2.475c-0.754-0.831-1.361-1.783-1.796-2.817
			c-0.906-2.066-0.906-4.417,0-6.483c0.413-1.045,1.023-2.002,1.796-2.817c0.829-0.753,1.78-1.359,2.813-1.792
			c3.179-1.333,6.848-0.627,9.305,1.792c1.558,1.636,2.441,3.8,2.475,6.059c-0.014,1.115-0.246,2.216-0.683,3.242
			c-0.435,1.033-1.041,1.985-1.792,2.817C12.986,169.796,10.803,170.687,8.534,170.667L8.534,170.667z"/>
		<path d="M503.467,281.6H409.6c-14.132-0.015-25.585-11.468-25.6-25.6v-93.867c0-4.713,3.82-8.533,8.533-8.533
			s8.533,3.821,8.533,8.533V256c0.005,4.711,3.822,8.529,8.533,8.533h93.867c4.713,0,8.533,3.821,8.533,8.533
			S508.18,281.6,503.467,281.6z"/>
		<path d="M290.134,384h-76.8c-2.263,0.001-4.434-0.898-6.035-2.499c-1.6-1.6-2.499-3.771-2.499-6.035v-51.2
			c-0.001-2.263,0.898-4.434,2.499-6.035c1.6-1.6,3.771-2.499,6.035-2.499h76.8c2.263-0.001,4.434,0.898,6.035,2.499
			c1.6,1.6,2.499,3.771,2.499,6.035v51.2c0.001,2.263-0.898,4.434-2.499,6.035C294.568,383.102,292.397,384.001,290.134,384z
			 M221.867,366.934H281.6V332.8h-59.733V366.934z"/>
	</g>
</g>
<g>
</g>
<g>
</g>
<g>
</g>
<g>
</g>
<g>
</g>
<g>
</g>
<g>
</g>
<g>
</g>
<g>
</g>
<g>
</g>
<g>
</g>
<g>
</g>
<g>
</g>
<g>
</g>
<g>
</g>
</svg>
