<svg height="512pt" viewBox="-72 0 512 512" width="512pt" xmlns="http://www.w3.org/2000/svg"><path d="m183.5 0c-101.183594 0-183.5 82.316406-183.5 183.5 0 32.539062 8.636719 64.511719 24.972656 92.460938 14.378906 24.597656 34.386719 45.601562 58.195313 61.183593v111.1875h27.363281c4.894531 35.90625 35.742188 63.667969 72.96875 63.667969s68.070312-27.761719 72.96875-63.667969h27.363281v-111.1875c23.808594-15.582031 43.816407-36.585937 58.195313-61.183593 16.335937-27.949219 24.972656-59.921876 24.972656-92.460938 0-101.183594-82.316406-183.5-183.5-183.5zm77.726562 315.878906-7.394531 4.347656v38.105469h-140.664062v-38.105469l-7.394531-4.347656c-22.652344-13.332031-41.640626-32.371094-54.902344-55.058594-13.652344-23.359374-20.871094-50.09375-20.871094-77.320312 0-84.640625 68.859375-153.5 153.5-153.5s153.5 68.859375 153.5 153.5c0 27.226562-7.21875 53.960938-20.871094 77.320312-13.261718 22.6875-32.246094 41.726563-54.902344 55.058594zm-7.394531 102.453125h-140.664062v-30h140.667969v30zm-70.332031 63.667969c-20.636719 0-37.964844-14.394531-42.496094-33.667969h84.992188c-4.53125 19.273438-21.859375 33.667969-42.496094 33.667969zm0 0"/><path d="m256.59375 131.617188 16.707031-16.707032-21.210937-21.214844-16.707032 16.707032c-10.777343-7.671875-23.320312-13.015625-36.882812-15.308594v-23.59375h-30v23.59375c-13.5625 2.292969-26.105469 7.640625-36.882812 15.3125l-16.707032-16.710938-21.214844 21.214844 16.710938 16.707032c-7.671875 10.777343-13.015625 23.320312-15.3125 36.882812h-23.59375v30h23.59375c2.296875 13.5625 7.640625 26.105469 15.3125 36.882812l-16.710938 16.707032 21.214844 21.214844 16.707032-16.710938c10.777343 7.671875 23.320312 13.015625 36.882812 15.3125v23.59375h30v-23.59375c13.5625-2.296875 26.105469-7.640625 36.882812-15.3125l16.707032 16.707031 21.210937-21.210937-16.707031-16.707032c7.671875-10.777343 13.015625-23.320312 15.308594-36.882812h23.597656v-30h-23.59375c-2.296875-13.5625-7.640625-26.105469-15.3125-36.882812zm-73.09375 111.550781c-32.898438 0-59.667969-26.765625-59.667969-59.667969s26.769531-59.667969 59.667969-59.667969 59.664062 26.769531 59.664062 59.667969-26.761718 59.667969-59.664062 59.667969zm0 0"/><path d="m168.5 168.5h30v30h-30zm0 0"/></svg>