<?xml version="1.0" encoding="iso-8859-1"?>
<!-- Generator: Adobe Illustrator 19.0.0, SVG Export Plug-In . SVG Version: 6.00 Build 0)  -->
<svg version="1.1" id="Capa_1" xmlns="http://www.w3.org/2000/svg" xmlns:xlink="http://www.w3.org/1999/xlink" x="0px" y="0px"
	 viewBox="0 0 480 480" style="enable-background:new 0 0 480 480;" xml:space="preserve">
<g>
	<g>
		<path d="M270.859,43.749l-24-40c-2.891-4.82-10.828-4.82-13.719,0l-24,40c-1.484,2.473-1.523,5.551-0.102,8.059
			c1.418,2.508,4.078,4.059,6.961,4.059h48c2.883,0,5.543-1.551,6.961-4.059C272.383,49.3,272.344,46.222,270.859,43.749z
			 M230.129,39.866L240,23.417l9.871,16.449H230.129z"/>
	</g>
</g>
<g>
	<g>
		<path d="M182.684,67.022c-1.461-2.48-4.148-4.031-7.027-3.941l-46.641,0.785c-2.813,0.047-5.391,1.566-6.797,4
			c-1.402,2.434-1.43,5.426-0.066,7.883l22.641,40.785c1.402,2.52,4.047,4.094,6.93,4.117c0.023,0,0.043,0,0.066,0
			c2.855,0,5.5-1.523,6.93-4l24-41.57C184.16,72.585,184.145,69.507,182.684,67.022z M151.926,96.413l-9.313-16.773l19.184-0.32
			L151.926,96.413z"/>
	</g>
</g>
<g>
	<g>
		<path d="M182.719,196.651l-24-41.57c-1.441-2.496-4.422-3.984-6.996-4c-2.883,0.023-5.527,1.598-6.93,4.117l-22.641,40.785
			c-1.363,2.457-1.336,5.449,0.066,7.883c1.406,2.434,3.984,3.953,6.797,4l46.641,0.785c0.043,0,0.09,0,0.133,0
			c2.832,0,5.457-1.496,6.895-3.941C184.145,202.226,184.16,199.147,182.719,196.651z M142.613,192.093l9.313-16.773l9.871,17.094
			L142.613,192.093z"/>
	</g>
</g>
<g>
	<g>
		<path d="M270.961,219.925c-1.418-2.508-4.078-4.059-6.961-4.059h-48c-2.883,0-5.543,1.551-6.961,4.059
			c-1.422,2.508-1.383,5.586,0.102,8.059l24,40c1.445,2.41,4.051,3.883,6.859,3.883s5.414-1.473,6.859-3.883l24-40
			C272.344,225.511,272.383,222.433,270.961,219.925z M240,248.315l-9.871-16.449h19.742L240,248.315z"/>
	</g>
</g>
<g>
	<g>
		<path d="M357.848,195.983l-22.641-40.785c-1.402-2.52-4.047-4.094-6.93-4.117c-3.055,0.121-5.555,1.504-6.996,4l-24,41.57
			c-1.441,2.496-1.426,5.574,0.035,8.059c1.438,2.445,4.063,3.941,6.895,3.941c0.043,0,0.09,0,0.133,0l46.641-0.785
			c2.813-0.047,5.391-1.566,6.797-4C359.184,201.433,359.211,198.44,357.848,195.983z M318.203,192.413l9.871-17.094l9.313,16.773
			L318.203,192.413z"/>
	</g>
</g>
<g>
	<g>
		<path d="M357.781,67.866c-1.406-2.434-3.984-3.953-6.797-4l-46.641-0.785c-2.93-0.051-5.566,1.461-7.027,3.941
			c-1.461,2.484-1.477,5.563-0.035,8.059l24,41.57c1.43,2.477,4.074,4,6.93,4c0.023,0,0.043,0,0.066,0
			c2.883-0.023,5.527-1.598,6.93-4.117l22.641-40.785C359.211,73.292,359.184,70.3,357.781,67.866z M328.074,96.413l-9.871-17.094
			l19.184,0.32L328.074,96.413z"/>
	</g>
</g>
<g>
	<g>
		<path d="M240,71.866c-35.289,0-64,28.711-64,64s28.711,64,64,64s64-28.711,64-64S275.289,71.866,240,71.866z M240,183.866
			c-26.469,0-48-21.531-48-48s21.531-48,48-48s48,21.531,48,48S266.469,183.866,240,183.866z"/>
	</g>
</g>
<g>
	<g>
		<path d="M479.391,244.804c-1.238-2.988-4.156-4.938-7.391-4.938h-96c-2.121,0-4.156,0.844-5.656,2.344l-96,96
			c-2.289,2.289-2.973,5.727-1.734,8.719c1.238,2.988,4.156,4.938,7.391,4.938h96c2.121,0,4.156-0.844,5.656-2.344l2.344-2.344
			l42.405,42.405c-1.497,3.129-2.405,6.589-2.405,10.283c0,10.416,6.708,19.212,16,22.525v33.475h-72c-4.41,0-8-3.59-8-8s3.59-8,8-8
			h8c13.234,0,24-10.766,24-24s-10.766-24-24-24h-56v-8c0-4.418-3.582-8-8-8h-24v-8h-16v8h-64v-8h-16v8h-24c-4.418,0-8,3.582-8,8v8
			h-56c-13.234,0-24,10.766-24,24s10.766,24,24,24h8c4.41,0,8,3.59,8,8s-3.59,8-8,8H40v-33.474c9.292-3.313,16-12.11,16-22.526
			c0-3.694-0.908-7.154-2.405-10.283L96,347.179l2.344,2.344c1.5,1.5,3.535,2.344,5.656,2.344h96c3.234,0,6.152-1.949,7.391-4.938
			c1.238-2.992,0.555-6.43-1.734-8.719l-96-96c-1.5-1.5-3.535-2.344-5.656-2.344H8c-3.234,0-6.152,1.949-7.391,4.938
			c-1.238,2.992-0.555,6.43,1.734,8.719l82.344,82.344l-42.405,42.405c-3.129-1.497-6.589-2.405-10.283-2.405
			c-13.234,0-24,10.766-24,24c0,10.416,6.708,19.212,16,22.525v57.475h16v-8h72c13.234,0,24-10.766,24-24s-10.766-24-24-24h-8
			c-4.41,0-8-3.59-8-8s3.59-8,8-8h56v64c0,4.418,3.582,8,8,8h144c4.418,0,8-3.582,8-8v-64h56c4.41,0,8,3.59,8,8s-3.59,8-8,8h-8
			c-13.234,0-24,10.766-24,24s10.766,24,24,24h72v8h16v-57.474c9.292-3.313,16-12.11,16-22.526c0-13.234-10.766-24-24-24
			c-3.694,0-7.154,0.908-10.283,2.405l-42.405-42.405l82.344-82.344C479.945,251.233,480.629,247.796,479.391,244.804z
			 M107.313,335.866l-16-16h25.375l16,16H107.313z M180.688,335.866h-25.375l-16-16h25.375L180.688,335.866z M148.688,303.866
			h-25.375l-16-16h25.375L148.688,303.866z M100.688,255.866l16,16H91.313l-16-16H100.688z M27.313,255.866h25.375l16,16H43.313
			L27.313,255.866z M75.313,303.866l-16-16h25.375l16,16H75.313z M32,407.866c-4.41,0-8-3.59-8-8s3.59-8,8-8s8,3.59,8,8
			S36.41,407.866,32,407.866z M304,463.866H176v-72h128V463.866z M448,391.866c4.41,0,8,3.59,8,8s-3.59,8-8,8s-8-3.59-8-8
			S443.59,391.866,448,391.866z M379.313,255.866h25.375l-16,16h-25.375L379.313,255.866z M347.313,287.866h25.375l-16,16h-25.375
			L347.313,287.866z M324.688,335.866h-25.375l16-16h25.375L324.688,335.866z M372.688,335.866h-25.375l16-16h25.375
			L372.688,335.866z M404.688,303.866h-25.375l16-16h25.375L404.688,303.866z M436.688,271.866h-25.375l16-16h25.375
			L436.688,271.866z"/>
	</g>
</g>
<g>
	<g>
		<path d="M255.898,430.585c-0.414-2.539-2.02-4.723-4.32-5.875l-6.074-3.035l8.152-8.152l-11.313-11.313l-16,16
			c-1.82,1.816-2.652,4.398-2.242,6.938c0.414,2.539,2.02,4.723,4.32,5.875l6.074,3.035l-8.152,8.152l11.313,11.313l16-16
			C255.477,435.706,256.309,433.124,255.898,430.585z"/>
	</g>
</g>
<g>
</g>
<g>
</g>
<g>
</g>
<g>
</g>
<g>
</g>
<g>
</g>
<g>
</g>
<g>
</g>
<g>
</g>
<g>
</g>
<g>
</g>
<g>
</g>
<g>
</g>
<g>
</g>
<g>
</g>
</svg>
