<svg id="Layer_3" enable-background="new 0 0 64 64" height="512" viewBox="0 0 64 64" width="512" xmlns="http://www.w3.org/2000/svg"><g><path d="m10 5h2v2h-2z"/><path d="m14 5h2v2h-2z"/><path d="m58 49v-4c0-.737-.405-1.375-1-1.722v-2.278c0-.737-.405-1.375-1-1.722v-27.778c0-5.79-4.71-10.5-10.5-10.5s-10.5 4.71-10.5 10.5v36c0 5.238-4.262 9.5-9.5 9.5s-9.5-4.262-9.5-9.5v-16.778c.595-.347 1-.985 1-1.722v-6c1.654 0 3-1.346 3-3v-5c.552 0 1-.448 1-1v-4c0-.552-.448-1-1-1v-7c0-.552-.448-1-1-1h-12c-.552 0-1 .448-1 1v7c-.552 0-1 .448-1 1v4c0 .552.448 1 1 1v5c0 1.654 1.346 3 3 3v6c0 .737.405 1.375 1 1.722v16.778c0 8.547 6.953 15.5 15.5 15.5s15.5-6.953 15.5-15.5v-36c0-2.481 2.019-4.5 4.5-4.5s4.5 2.019 4.5 4.5v27.778c-.595.347-1 .985-1 1.722v2.278c-.595.347-1 .985-1 1.722v4c-.552 0-1 .448-1 1v4c0 .552.448 1 1 1v7c0 .552.448 1 1 1h8c.552 0 1-.448 1-1v-7c.552 0 1-.448 1-1v-4c0-.552-.448-1-1-1zm-3-8v2h-4v-2zm-44-12v-2h4v2zm-4-16v-2h12v2zm1-10h10v6h-10zm0 17v-5h10v5c0 .551-.449 1-1 1h-8c-.551 0-1-.449-1-1zm7 3v2h-4v-2zm30.5-18c-3.584 0-6.5 2.916-6.5 6.5v36c0 7.444-6.056 13.5-13.5 13.5s-13.5-6.056-13.5-13.5v-16.5h2v16.5c0 6.341 5.159 11.5 11.5 11.5s11.5-5.159 11.5-11.5v-36c0-4.687 3.813-8.5 8.5-8.5s8.5 3.813 8.5 8.5v27.5h-2v-27.5c0-3.584-2.916-6.5-6.5-6.5zm4.5 40h6v4h-6zm7 8h-8v-2h8zm-1 8h-6v-6h6z"/><path d="m52 57h2v2h-2z"/><path d="m10 16h2v4h-2z"/><path d="m14 16h2v4h-2z"/></g></svg>